name rise45.9887peak57.8056fall74.9286.mot
datacolumns 19
datarows 18
range 7.09331000000000 7.12163900000000
endheader
time	ground_force1_vx	ground_force1_vy	ground_force1_vz	ground_force1_px	ground_force1_py	ground_force1_pz	ground_force2_vx	ground_force2_vy	ground_force2_vz	ground_force2_px	ground_force2_py	ground_force2_pz	ground_torque1_x	ground_torque1_y	ground_torque1_z	ground_torque2_x	ground_torque2_y	ground_torque2_z	
7.09331000000000	13.12713100000000	715.47436100000004	40.53673100000000	0.25355900000000	0.00000000000000	0.09237300000000	0.00000000000000	0.00000000000000	0.00000000000000	0.00000000000000	0.00000000000000	0.00000000000000	0.00000000000000	18.17142400000000	0.00000000000000	0.00000000000000	0.00000000000000	0.00000000000000	
7.09498200000000	12.64902100000000	715.89577399999996	40.65191200000000	0.25274300000000	0.00000000000000	0.09245500000000	0.00000000000000	0.00000000000000	0.00000000000000	0.00000000000000	0.00000000000000	0.00000000000000	0.00000000000000	18.24790000000000	0.00000000000000	0.00000000000000	0.00000000000000	0.00000000000000	
7.09664500000000	12.15552800000000	716.32493599999998	40.76792300000000	0.25189200000000	0.00000000000000	0.09253900000000	0.00000000000000	0.00000000000000	0.00000000000000	0.00000000000000	0.00000000000000	0.00000000000000	0.00000000000000	18.32571300000000	0.00000000000000	0.00000000000000	0.00000000000000	0.00000000000000	
7.09830600000000	11.64655500000000	716.76155900000003	40.88464000000000	0.25100500000000	0.00000000000000	0.09262300000000	0.00000000000000	0.00000000000000	0.00000000000000	0.00000000000000	0.00000000000000	0.00000000000000	0.00000000000000	18.40475800000000	0.00000000000000	0.00000000000000	0.00000000000000	0.00000000000000	
7.09999300000000	11.12204900000000	717.20542100000000	41.00194800000000	0.25008300000000	0.00000000000000	0.09270900000000	0.00000000000000	0.00000000000000	0.00000000000000	0.00000000000000	0.00000000000000	0.00000000000000	0.00000000000000	18.48494000000000	0.00000000000000	0.00000000000000	0.00000000000000	0.00000000000000	
7.10164200000000	10.58199800000000	717.65635999999995	41.11974100000000	0.24912500000000	0.00000000000000	0.09279500000000	0.00000000000000	0.00000000000000	0.00000000000000	0.00000000000000	0.00000000000000	0.00000000000000	0.00000000000000	18.56617000000000	0.00000000000000	0.00000000000000	0.00000000000000	0.00000000000000	
7.10330900000000	10.02643200000000	718.11427500000002	41.23792400000000	0.24813000000000	0.00000000000000	0.09288300000000	0.00000000000000	0.00000000000000	0.00000000000000	0.00000000000000	0.00000000000000	0.00000000000000	0.00000000000000	18.64836800000000	0.00000000000000	0.00000000000000	0.00000000000000	0.00000000000000	
7.10501800000000	9.45542200000000	718.57912499999998	41.35641100000000	0.24710100000000	0.00000000000000	0.09297200000000	0.00000000000000	0.00000000000000	0.00000000000000	0.00000000000000	0.00000000000000	0.00000000000000	0.00000000000000	18.73145800000000	0.00000000000000	0.00000000000000	0.00000000000000	0.00000000000000	
7.10663900000000	8.86907800000000	719.05092800000000	41.47512600000000	0.24603600000000	0.00000000000000	0.09306200000000	0.00000000000000	0.00000000000000	0.00000000000000	0.00000000000000	0.00000000000000	0.00000000000000	0.00000000000000	18.81537700000000	0.00000000000000	0.00000000000000	0.00000000000000	0.00000000000000	
7.10830500000000	8.26754900000000	719.52975700000002	41.59400300000000	0.24493700000000	0.00000000000000	0.09315400000000	0.00000000000000	0.00000000000000	0.00000000000000	0.00000000000000	0.00000000000000	0.00000000000000	0.00000000000000	18.90006400000000	0.00000000000000	0.00000000000000	0.00000000000000	0.00000000000000	
7.10999600000000	7.65102200000000	720.01574000000005	41.71298400000000	0.24380400000000	0.00000000000000	0.09324600000000	0.00000000000000	0.00000000000000	0.00000000000000	0.00000000000000	0.00000000000000	0.00000000000000	0.00000000000000	18.98546800000000	0.00000000000000	0.00000000000000	0.00000000000000	0.00000000000000	
7.11164000000000	7.01972200000000	720.50905899999998	41.83202200000000	0.24263900000000	0.00000000000000	0.09334000000000	0.00000000000000	0.00000000000000	0.00000000000000	0.00000000000000	0.00000000000000	0.00000000000000	0.00000000000000	19.07154500000000	0.00000000000000	0.00000000000000	0.00000000000000	0.00000000000000	
7.11330600000000	6.37390700000000	721.00994600000001	41.95107800000000	0.24144300000000	0.00000000000000	0.09343500000000	0.00000000000000	0.00000000000000	0.00000000000000	0.00000000000000	0.00000000000000	0.00000000000000	0.00000000000000	19.15825700000000	0.00000000000000	0.00000000000000	0.00000000000000	0.00000000000000	
7.11498700000000	5.71387100000000	721.51868300000001	42.07012200000000	0.24021600000000	0.00000000000000	0.09353100000000	0.00000000000000	0.00000000000000	0.00000000000000	0.00000000000000	0.00000000000000	0.00000000000000	0.00000000000000	19.24557300000000	0.00000000000000	0.00000000000000	0.00000000000000	0.00000000000000	
7.11663700000000	5.03993800000000	722.03559800000005	42.18913400000000	0.23896200000000	0.00000000000000	0.09362800000000	0.00000000000000	0.00000000000000	0.00000000000000	0.00000000000000	0.00000000000000	0.00000000000000	0.00000000000000	19.33346800000000	0.00000000000000	0.00000000000000	0.00000000000000	0.00000000000000	
7.11830500000000	4.35246600000000	722.56106399999999	42.30810100000000	0.23768000000000	0.00000000000000	0.09372600000000	0.00000000000000	0.00000000000000	0.00000000000000	0.00000000000000	0.00000000000000	0.00000000000000	0.00000000000000	19.42192400000000	0.00000000000000	0.00000000000000	0.00000000000000	0.00000000000000	
7.11998600000000	3.65183800000000	723.09549700000002	42.42702000000000	0.23637400000000	0.00000000000000	0.09382500000000	0.00000000000000	0.00000000000000	0.00000000000000	0.00000000000000	0.00000000000000	0.00000000000000	0.00000000000000	19.51092500000000	0.00000000000000	0.00000000000000	0.00000000000000	0.00000000000000	
7.12163900000000	2.93846700000000	723.63935200000003	42.54589400000000	0.23504500000000	0.00000000000000	0.09392400000000	0.00000000000000	0.00000000000000	0.00000000000000	0.00000000000000	0.00000000000000	0.00000000000000	0.00000000000000	19.60046400000000	0.00000000000000	0.00000000000000	0.00000000000000	0.00000000000000	
